<svg width="42" height="42" viewBox="0 0 42 42" fill="none" xmlns="http://www.w3.org/2000/svg">
<path d="M28.875 5.25C28.875 4.55381 29.1516 3.88613 29.6438 3.39384C30.1361 2.90156 30.8038 2.625 31.5 2.625H36.75C37.4462 2.625 38.1139 2.90156 38.6062 3.39384C39.0984 3.88613 39.375 4.55381 39.375 5.25V36.75H40.6875C41.0356 36.75 41.3694 36.8883 41.6156 37.1344C41.8617 37.3806 42 37.7144 42 38.0625C42 38.4106 41.8617 38.7444 41.6156 38.9906C41.3694 39.2367 41.0356 39.375 40.6875 39.375H1.3125C0.964403 39.375 0.630564 39.2367 0.384422 38.9906C0.138281 38.7444 0 38.4106 0 38.0625C0 37.7144 0.138281 37.3806 0.384422 37.1344C0.630564 36.8883 0.964403 36.75 1.3125 36.75H2.625V28.875C2.625 28.1788 2.90156 27.5111 3.39384 27.0188C3.88613 26.5266 4.55381 26.25 5.25 26.25H10.5C11.1962 26.25 11.8639 26.5266 12.3562 27.0188C12.8484 27.5111 13.125 28.1788 13.125 28.875V36.75H15.75V18.375C15.75 17.6788 16.0266 17.0111 16.5188 16.5188C17.0111 16.0266 17.6788 15.75 18.375 15.75H23.625C24.3212 15.75 24.9889 16.0266 25.4812 16.5188C25.9734 17.0111 26.25 17.6788 26.25 18.375V36.75H28.875V5.25Z" fill="white"/>
</svg>
