<svg width="32" height="31" viewBox="0 0 32 31" fill="none" xmlns="http://www.w3.org/2000/svg">
<g clip-path="url(#clip0_323_47)">
<path d="M4.00179 5.16667C2.36446 3.33973 3.80445 1.11187 6.28979 0L16.0018 12.8671L25.7138 0C28.1992 1.11187 29.6392 3.33973 28.0019 5.16667L18.1618 15.7273L22.3111 21.2267C23.7814 20.6464 25.4771 20.5091 27.0704 20.8417C28.6637 21.1742 30.0411 21.9528 30.9365 23.0268C31.832 24.1008 32.1816 25.3942 31.9179 26.6565C31.6541 27.9188 30.7957 29.0604 29.5088 29.8606C28.2216 30.6609 26.5975 31.0626 24.9503 30.9886C23.3031 30.9144 21.7499 30.3695 20.5911 29.4591C19.4323 28.5489 18.7502 27.3379 18.6768 26.0605C18.6035 24.7828 19.1439 23.5296 20.1938 22.5432L16.0018 18.042L11.8098 22.5411C12.8597 23.5276 13.4001 24.7808 13.3267 26.0584C13.2534 27.3358 12.5713 28.5469 11.4125 29.457C10.2537 30.3674 8.70051 30.9124 7.05328 30.9866C5.40605 31.0606 3.78187 30.6588 2.49487 29.8586C1.20786 29.0584 0.349477 27.9167 0.085736 26.6544C-0.178005 25.3921 0.171638 24.0988 1.06704 23.0247C1.96244 21.9507 3.33997 21.1722 4.93323 20.8396C6.52645 20.5071 8.22221 20.6443 9.69245 21.2247L13.8418 15.7273L4.00179 5.16667ZM10.6685 25.8333C10.6685 25.0112 10.247 24.2226 9.49688 23.6412C8.74675 23.0599 7.72933 22.7333 6.66845 22.7333C5.6076 22.7333 4.59019 23.0599 3.84003 23.6412C3.08989 24.2226 2.66845 25.0112 2.66845 25.8333C2.66845 26.6555 3.08989 27.4441 3.84003 28.0254C4.59019 28.6068 5.6076 28.9333 6.66845 28.9333C7.72933 28.9333 8.74675 28.6068 9.49688 28.0254C10.247 27.4441 10.6685 26.6555 10.6685 25.8333ZM29.3352 25.8333C29.3352 25.0112 28.9136 24.2226 28.1635 23.6412C27.4133 23.0599 26.396 22.7333 25.3351 22.7333C24.2743 22.7333 23.2569 23.0599 22.5067 23.6412C21.7566 24.2226 21.3351 25.0112 21.3351 25.8333C21.3351 26.6555 21.7566 27.4441 22.5067 28.0254C23.2569 28.6068 24.2743 28.9333 25.3351 28.9333C26.396 28.9333 27.4133 28.6068 28.1635 28.0254C28.9136 27.4441 29.3352 26.6555 29.3352 25.8333Z" fill="white"/>
</g>
<defs>
<clipPath id="clip0_323_47">
<rect width="32" height="31" fill="white"/>
</clipPath>
</defs>
</svg>
